<svg width="20" height="16" viewBox="0 0 20 16" fill="none" xmlns="http://www.w3.org/2000/svg">
<mask id="path-1-inside-1_44_146" fill="white">
<path d="M10 0C5.9033 0 2.84326 2.66078 1.02393 4.84023C-0.341309 6.47575 -0.341309 8.78851 1.02393 10.4241C2.84326 12.6035 5.9033 15.2643 10 15.2643C14.0967 15.2643 17.1568 12.6035 18.976 10.4241C20.3413 8.78851 20.3413 6.47575 18.976 4.84023C17.1568 2.66078 14.0967 0 10 0Z"/>
</mask>
<path d="M1.02393 4.84023L0.256247 4.1994L0.256237 4.19941L1.02393 4.84023ZM1.02393 10.4241L0.256228 11.0649L0.256253 11.0649L1.02393 10.4241ZM18.976 10.4241L19.7437 11.0649L19.7437 11.0649L18.976 10.4241ZM18.976 4.84023L18.2084 5.48106L18.2084 5.48107L18.976 4.84023ZM10 -1C5.45354 -1 2.1385 1.94457 0.256247 4.1994L1.79161 5.48107C3.54803 3.37698 6.35306 1 10 1V-1ZM0.256237 4.19941C-1.41875 6.20601 -1.41874 9.05826 0.256228 11.0649L1.79163 9.78326C0.736121 8.51876 0.736132 6.7455 1.79162 5.48105L0.256237 4.19941ZM0.256253 11.0649C2.1385 13.3197 5.45354 16.2643 10 16.2643V14.2643C6.35306 14.2643 3.54802 11.8873 1.7916 9.78323L0.256253 11.0649ZM10 16.2643C14.5465 16.2643 17.8615 13.3197 19.7437 11.0649L18.2084 9.78325C16.452 11.8873 13.647 14.2643 10 14.2643V16.2643ZM19.7437 11.0649C21.4188 9.05827 21.4188 6.206 19.7437 4.1994L18.2084 5.48107C19.2639 6.74551 19.2639 8.51875 18.2084 9.78325L19.7437 11.0649ZM19.7437 4.19941C17.8615 1.94457 14.5465 -1 10 -1V1C13.647 1 16.452 3.37699 18.2084 5.48106L19.7437 4.19941Z" fill="url(#paint0_linear_44_146)" mask="url(#path-1-inside-1_44_146)"/>
<path d="M12.7709 7.63214C12.7709 9.16252 11.5304 10.403 10 10.403C8.46963 10.403 7.2291 9.16252 7.2291 7.63214C7.2291 6.10175 8.46963 4.86122 10 4.86122C11.5304 4.86122 12.7709 6.10175 12.7709 7.63214Z" stroke="url(#paint1_linear_44_146)" stroke-linecap="round" stroke-linejoin="round"/>
<defs>
<linearGradient id="paint0_linear_44_146" x1="10" y1="0" x2="10" y2="15.2643" gradientUnits="userSpaceOnUse">
<stop stop-color="#E23CDE"/>
<stop offset="1" stop-color="#FF59F9"/>
</linearGradient>
<linearGradient id="paint1_linear_44_146" x1="10" y1="4.36122" x2="10" y2="10.903" gradientUnits="userSpaceOnUse">
<stop stop-color="#E23CDE"/>
<stop offset="1" stop-color="#FF59F9"/>
</linearGradient>
</defs>
<script xmlns=""/></svg>