<svg width="18" height="14" viewBox="0 0 18 14" fill="none" xmlns="http://www.w3.org/2000/svg">
<path d="M13.7187 0.273987H3.78131L0.273998 3.7813L8.75002 13.7187L17.226 3.7813L13.7187 0.273987Z" fill="#5048E5"/>
<path d="M13.7187 0.273987L8.75002 13.7187L17.226 3.7813L13.7187 0.273987Z" fill="#857FFF"/>
<path d="M3.78131 0.273987L5.07765 3.7813H0.273998L3.78131 0.273987Z" fill="#3E35DF"/>
<path d="M8.75002 0.273987L5.07765 3.7813H12.4224L8.75002 0.273987Z" fill="#857FFF"/>
<path d="M12.4224 3.7813H17.226L13.7187 0.273987L12.4224 3.7813Z" fill="#857FFF"/>
<path d="M0.273998 3.78131H5.07765L8.75002 13.7187L0.273998 3.78131Z" fill="#857FFF"/>
<path d="M17.4197 3.58757L13.9125 0.080254C13.887 0.0548057 13.8568 0.0346197 13.8236 0.0208493C13.7903 0.00707885 13.7547 -5.92935e-06 13.7187 3.72335e-09H3.78132C3.74533 -5.92935e-06 3.70971 0.00707885 3.67646 0.0208493C3.64322 0.0346197 3.61302 0.0548057 3.58758 0.080254L0.0802681 3.58757C0.0315294 3.6363 0.00294557 3.70161 0.000215263 3.77047C-0.00251505 3.83934 0.0208087 3.9067 0.0655367 3.95914L8.54152 13.8965C8.56724 13.9267 8.5992 13.9509 8.63519 13.9675C8.67118 13.9841 8.71035 13.9927 8.74999 13.9927C8.78962 13.9927 8.82879 13.9841 8.86478 13.9675C8.90077 13.9509 8.93273 13.9267 8.95845 13.8965L17.4344 3.95914C17.4792 3.90671 17.5025 3.83935 17.4998 3.77048C17.4971 3.70161 17.4685 3.6363 17.4197 3.58757ZM3.67259 0.77024L4.68407 3.50728H0.935513L3.67259 0.77024ZM4.17472 0.548003H8.06892L5.19451 3.30747L4.17472 0.548003ZM4.88665 4.05532L5.25255 5.04534C5.27196 5.09788 5.30701 5.14321 5.35297 5.17523C5.39893 5.20725 5.4536 5.22443 5.50961 5.22444C5.55378 5.22443 5.59729 5.21374 5.63644 5.19329C5.67559 5.17285 5.70922 5.14324 5.73446 5.10699C5.7597 5.07074 5.7758 5.02893 5.7814 4.98512C5.787 4.94131 5.78192 4.89679 5.76661 4.85537L5.47092 4.05532H10.796C10.8687 4.05532 10.9384 4.02645 10.9897 3.97506C11.0411 3.92367 11.07 3.85398 11.07 3.7813C11.07 3.70863 11.0411 3.63893 10.9897 3.58754C10.9384 3.53615 10.8687 3.50728 10.796 3.50728H5.77765L8.75002 0.653824L12.0983 3.86815L8.75002 12.9282L6.19857 6.02424C6.17283 5.95682 6.12152 5.90228 6.05581 5.87246C5.99009 5.84264 5.91526 5.83994 5.84756 5.86495C5.77987 5.88997 5.72477 5.94067 5.69424 6.00607C5.66371 6.07146 5.6602 6.14625 5.68448 6.21421L7.95917 12.3693L0.867837 4.05532H4.88665ZM12.6134 4.05532H16.6322L9.54084 12.3693L12.6134 4.05532ZM12.8159 3.50728L13.1116 2.70724C13.1241 2.67348 13.1298 2.6376 13.1284 2.60165C13.127 2.56569 13.1186 2.53036 13.1035 2.49767C13.0885 2.46498 13.0671 2.43558 13.0407 2.41114C13.0143 2.3867 12.9833 2.3677 12.9496 2.35522C12.9158 2.34275 12.8799 2.33704 12.844 2.33844C12.808 2.33983 12.7727 2.34829 12.74 2.36334C12.7073 2.37839 12.6779 2.39973 12.6535 2.42614C12.629 2.45255 12.61 2.48351 12.5976 2.51727L12.3055 3.30743L9.43109 0.548003H13.3253L13.0296 1.34815C13.0044 1.41632 13.0073 1.4917 13.0377 1.55772C13.0681 1.62374 13.1234 1.67498 13.1916 1.70017C13.2598 1.72536 13.3352 1.72244 13.4012 1.69205C13.4672 1.66166 13.5184 1.60629 13.5436 1.53812L13.8274 0.77024L16.5645 3.50728H12.8159Z" fill="white" fill-opacity="0.25"/>
</svg>


